<?xml version="1.0" encoding="utf-8"?>
<!-- Generator: Adobe Illustrator 17.0.0, SVG Export Plug-In . SVG Version: 6.00 Build 0)  -->
<!DOCTYPE svg PUBLIC "-//W3C//DTD SVG 1.1//EN" "http://www.w3.org/Graphics/SVG/1.1/DTD/svg11.dtd">
<svg version="1.1" id="Layer_1" xmlns="http://www.w3.org/2000/svg" xmlns:xlink="http://www.w3.org/1999/xlink" x="0px" y="0px"
	 width="392px" height="305px" viewBox="0 0 392 305" enable-background="new 0 0 392 305" xml:space="preserve">
<path d="M388.451,0H4.611C2.501,0,0,0.869,0,3.009v297.41C0,302.559,2.501,305,4.611,305h383.84c2.11,0,3.549-2.441,3.549-4.581
	V3.009C392,0.869,390.561,0,388.451,0z M353,72.13c0,2.137-1.733,3.87-3.87,3.87h-21.26c-2.137,0-3.87-1.733-3.87-3.87V50.87
	c0-2.137,1.733-3.87,3.87-3.87h21.26c2.137,0,3.87,1.733,3.87,3.87V72.13z M236,72.13c0,2.137-1.733,3.87-3.87,3.87h-21.26
	c-2.137,0-3.87-1.733-3.87-3.87V50.87c0-2.137,1.733-3.87,3.87-3.87h21.26c2.137,0,3.87,1.733,3.87,3.87V72.13z M131.321,50.379
	c9.7,0,17.56,7.86,17.56,17.56c0,9.7-7.86,17.56-17.56,17.56c-9.7,0-17.56-7.86-17.56-17.56
	C113.761,58.239,121.621,50.379,131.321,50.379z M58.781,37.309c13.31,0,24.1,10.79,24.1,24.09c0,13.31-10.79,24.1-24.1,24.1
	c-13.3,0-24.09-10.79-24.09-24.1C34.691,48.099,45.481,37.309,58.781,37.309z M35,266.159v-121.54c0-2.57,3.271-2.619,6.841-2.619
	H65v61.799c0,1.66,1.121,3.201,2.781,3.201H74v65H41.841C38.271,272,35,268.719,35,266.159z M126,272H79v-65h5.781
	c1.66,0,3.219-1.541,3.219-3.201V142h29v61.799c0,1.66,1.121,3.201,2.781,3.201H126V272z M171,272h-40v-65h5.781
	c1.66,0,3.219-1.541,3.219-3.201V142h31V272z M216,272h-40V142h31v61.799c0,1.66,1.121,3.201,2.781,3.201H216V272z M265,272h-44v-65
	h5.781c1.66,0,3.219-1.541,3.219-3.201V142h26v61.799c0,1.66,1.121,3.201,2.781,3.201H265V272z M293,72.13
	c0,2.137-1.733,3.87-3.87,3.87h-21.26c-2.137,0-3.87-1.733-3.87-3.87V50.87c0-2.137,1.733-3.87,3.87-3.87h21.26
	c2.137,0,3.87,1.733,3.87,3.87V72.13z M311,272h-41v-65h5.781c1.66,0,3.219-1.541,3.219-3.201V142h23v61.799
	c0,1.66,1.121,3.201,2.781,3.201H311V272z M355,266.159c0,2.56-2.109,5.841-5.679,5.841H316v-65h5.781
	c1.66,0,3.219-1.541,3.219-3.201V142h24.321c3.57,0,5.679,0.049,5.679,2.619V266.159z"/>
</svg>
