<?xml version="1.0" encoding="utf-8"?>
<!-- Generator: Adobe Illustrator 17.0.0, SVG Export Plug-In . SVG Version: 6.00 Build 0)  -->
<!DOCTYPE svg PUBLIC "-//W3C//DTD SVG 1.1//EN" "http://www.w3.org/Graphics/SVG/1.1/DTD/svg11.dtd">
<svg version="1.1" id="Layer_1" xmlns="http://www.w3.org/2000/svg" xmlns:xlink="http://www.w3.org/1999/xlink" x="0px" y="0px"
	 width="242px" height="366px" viewBox="0 0 242 366" enable-background="new 0 0 242 366" xml:space="preserve">
<g>
	<path d="M242,132c0,21,0,48.524,0,48.524c0,50.96-45,93.16-104,100.04V334h16.204c10.56,0,18.796,4.814,18.796,12.014v6.51
		c0,7.2-8.236,13.476-18.796,13.476h-65.77C77.864,366,70,359.724,70,352.524v-6.51c0-7.2,7.864-12.014,18.434-12.014H105v-53.306
		c-60-6.48-105-48.89-105-100.17c0,0,0-19.524,0-48.524c0-8,33-8,33,0c0,17,0,48.974,0,48.974C33,221.184,71.684,255,119.924,255
		h1.29c48.24,0,88.786-33.816,88.786-74.026c0,0,0-29.974,0-48.974C210,124,242,124,242,132z"/>
	<path stroke="#FFFFFF" stroke-miterlimit="10" d="M138.141,110.5c-2.052,0-3.641-2.086-3.641-4.138v-5.516
		c0-2.052,1.589-2.346,3.641-2.346H181.5v-14h-43.359c-2.052,0-3.641-2.903-3.641-4.954V74.03c0-2.052,1.589-2.53,3.641-2.53H181.5
		v-16h-43.359c-2.052,0-3.641-2.569-3.641-4.621v-5.516c0-2.052,1.589-2.863,3.641-2.863H181.5v-1.69
		c0-22.774-18.838-40.31-41.612-40.31h-38.665C78.448,0.5,60.5,18.036,60.5,40.81v1.69h44.836c2.052,0,4.164,1.524,4.164,3.576
		v5.201c0,2.052-2.113,4.223-4.164,4.223H60.5v16h44.836c2.052,0,4.164-0.27,4.164,1.781v5.201c0,2.052-2.113,5.018-4.164,5.018
		H60.5v15h44.836c2.052,0,4.164-0.065,4.164,1.987v5.201c0,2.052-2.113,4.812-4.164,4.812H60.5v75.318
		c0,22.774,17.948,41.682,40.722,41.682h38.665c22.774,0,41.612-18.908,41.612-41.682V110.5H138.141z"/>
</g>
</svg>
