<?xml version="1.0" encoding="UTF-8" standalone="no"?>
<svg xmlns="http://www.w3.org/2000/svg"
     xmlns:xlink="http://www.w3.org/1999/xlink"
     width="576px" height="432px" viewBox="0 0 576 432">
<title>glps_renderer figure</title>
<desc>
Creator: GL2PS 1.3.8, (C) 1999-2012 C. Geuzaine
For: Octave
CreationDate: Sun Jul  9 15:29:56 2017
</desc>
<defs>
</defs>
<g shape-rendering="crispEdges">
<polygon fill="#ffffff" points="84.4781,378.443 521.28,378.443 84.4781,32.4"/>
<polygon fill="#ffffff" points="521.28,378.443 521.28,32.4 84.4781,32.4"/>
<polyline fill="none" stroke="#000000" stroke-width="2" stroke-dasharray="16,0" points="84.4781,378.443 521.28,378.443"/>
<polyline fill="none" stroke="#000000" stroke-width="2" stroke-dasharray="16,0" points="84.4781,378.443 84.4781,32.4"/>
<polyline fill="none" stroke="#000000" stroke-width="2" stroke-dasharray="16,0" points="84.4781,378.443 84.4781,374.074"/>
<polyline fill="none" stroke="#000000" stroke-width="2" stroke-dasharray="16,0" points="193.679,378.443 193.679,374.074"/>
<polyline fill="none" stroke="#000000" stroke-width="2" stroke-dasharray="16,0" points="302.879,378.443 302.879,374.074"/>
<polyline fill="none" stroke="#000000" stroke-width="2" stroke-dasharray="16,0" points="412.079,378.443 412.079,374.074"/>
<polyline fill="none" stroke="#000000" stroke-width="2" stroke-dasharray="16,0" points="521.28,378.443 521.28,374.074"/>
<text fill="#000000" x="84.4781" y="383.443" font-size="10" text-anchor="middle" baseline-shift="-10" font-family="Helvetica">0</text>
<text fill="#000000" x="193.679" y="383.443" font-size="10" text-anchor="middle" baseline-shift="-10" font-family="Helvetica">100</text>
<text fill="#000000" x="302.879" y="383.443" font-size="10" text-anchor="middle" baseline-shift="-10" font-family="Helvetica">200</text>
<text fill="#000000" x="412.079" y="383.443" font-size="10" text-anchor="middle" baseline-shift="-10" font-family="Helvetica">300</text>
<text fill="#000000" x="521.28" y="383.443" font-size="10" text-anchor="middle" baseline-shift="-10" font-family="Helvetica">400</text>
<polyline fill="none" stroke="#000000" stroke-width="2" stroke-dasharray="16,0" points="84.4781,378.443 88.8441,378.443"/>
<polyline fill="none" stroke="#000000" stroke-width="2" stroke-dasharray="16,0" points="84.4781,329.008 88.8441,329.008"/>
<polyline fill="none" stroke="#000000" stroke-width="2" stroke-dasharray="16,0" points="84.4781,279.573 88.8441,279.573"/>
<polyline fill="none" stroke="#000000" stroke-width="2" stroke-dasharray="16,0" points="84.4781,230.139 88.8441,230.139"/>
<polyline fill="none" stroke="#000000" stroke-width="2" stroke-dasharray="16,0" points="84.4781,180.704 88.8441,180.704"/>
<polyline fill="none" stroke="#000000" stroke-width="2" stroke-dasharray="16,0" points="84.4781,131.269 88.8441,131.269"/>
<polyline fill="none" stroke="#000000" stroke-width="2" stroke-dasharray="16,0" points="84.4781,81.8347 88.8441,81.8347"/>
<polyline fill="none" stroke="#000000" stroke-width="2" stroke-dasharray="16,0" points="84.4781,32.4 88.8441,32.4"/>
<text fill="#000000" x="79.4803" y="378.443" font-size="10" text-anchor="end" baseline-shift="-5" font-family="Helvetica">0</text>
<text fill="#000000" x="79.4803" y="329.008" font-size="10" text-anchor="end" baseline-shift="-5" font-family="Helvetica">2e+19</text>
<text fill="#000000" x="79.4803" y="279.573" font-size="10" text-anchor="end" baseline-shift="-5" font-family="Helvetica">4e+19</text>
<text fill="#000000" x="79.4803" y="230.139" font-size="10" text-anchor="end" baseline-shift="-5" font-family="Helvetica">6e+19</text>
<text fill="#000000" x="79.4803" y="180.704" font-size="10" text-anchor="end" baseline-shift="-5" font-family="Helvetica">8e+19</text>
<text fill="#000000" x="79.4803" y="131.269" font-size="10" text-anchor="end" baseline-shift="-5" font-family="Helvetica">1e+20</text>
<text fill="#000000" x="79.4803" y="81.8347" font-size="10" text-anchor="end" baseline-shift="-5" font-family="Helvetica">1.2e+20</text>
<text fill="#000000" x="79.4803" y="32.4" font-size="10" text-anchor="end" baseline-shift="-5" font-family="Helvetica">1.4e+20</text>
<polyline fill="none" stroke="#000000" stroke-width="2" points="85.5701,378.443 86.6621,378.443 87.7541,378.443 88.8461,378.443 89.9381,378.443 91.0301,378.443 92.1221,378.443 93.2141,378.443 94.3061,378.443 95.3981,378.443 96.4901,378.443 97.5821,378.443 98.6741,378.443 99.7661,378.443 100.858,378.443 101.95,378.443 103.042,378.443 104.134,378.443 105.226,378.443 106.318,378.443 107.41,378.443 108.502,378.443 109.594,378.443 110.686,378.443 111.778,378.443 112.87,378.443 113.962,378.443 115.054,378.443 116.146,378.443 117.238,378.443 118.33,378.443 119.422,378.443 120.514,378.443 121.606,378.443 122.698,378.443 123.79,378.443 124.882,378.443 125.974,378.443 127.066,378.443 128.158,378.443 129.25,378.443 130.342,378.443 131.434,378.443 132.526,378.443 133.618,378.443 134.71,378.443 135.802,378.443 136.894,378.443 137.986,378.443 139.078,378.443 140.17,378.443 141.262,378.443 142.354,378.443 143.446,378.443 144.538,378.443 145.63,378.443 146.722,378.443 147.814,378.443 148.906,378.443 149.998,378.443 151.09,378.443 152.182,378.443 153.274,378.443 154.366,378.443 155.458,378.443 156.55,378.443 157.642,378.443 158.734,378.443 159.826,378.443 160.918,378.443 162.01,378.443 163.102,378.443 164.194,378.443 165.286,378.443 166.378,378.443 167.47,378.443 168.562,378.443 169.654,378.443 170.746,378.443 171.838,378.443 172.93,378.443 174.022,378.443 175.114,378.443 176.206,378.443 177.298,378.443 178.39,378.443 179.482,378.443 180.574,378.443 181.666,378.443 182.758,378.443 183.85,378.443 184.943,378.443 186.035,378.443 187.127,378.443 188.219,378.443 189.311,378.443 190.403,378.443 191.495,378.443 192.587,378.443 193.679,378.443 194.771,378.443 195.863,378.443 196.955,378.443 198.047,378.443 199.139,378.443 200.231,378.443 201.323,378.443 202.415,378.443 203.507,378.443 204.599,378.443 205.691,378.443 206.783,378.443 207.875,378.443 208.967,378.443 210.059,378.443 211.151,378.443 212.243,378.443 213.335,378.443 214.427,378.443 215.519,378.443 216.611,378.443 217.703,378.443 218.795,378.443 219.887,378.443 220.979,378.443 222.071,378.443 223.163,378.443 224.255,378.443 225.347,378.443 226.439,378.443 227.531,378.443 228.623,378.443 229.715,378.443 230.807,378.443 231.899,378.443 232.991,378.443 234.083,378.443 235.175,378.443 236.267,378.443 237.359,378.443 238.451,378.443 239.543,378.443 240.635,378.443 241.727,378.443 242.819,378.443 243.911,378.443 245.003,378.443 246.095,378.443 247.187,378.443 248.279,378.443 249.371,378.443 250.463,378.443 251.555,378.443 252.647,378.443 253.739,378.443 254.831,378.443 255.923,378.443 257.015,378.443 258.107,378.443 259.199,378.443 260.291,378.443 261.383,378.443 262.475,378.443 263.567,378.443 264.659,378.443 265.751,378.443 266.843,378.443 267.935,378.443 269.027,378.443 270.119,378.443 271.211,378.442 272.303,378.442 273.395,378.442 274.487,378.442 275.579,378.442 276.671,378.442 277.763,378.442 278.855,378.442 279.947,378.442 281.039,378.442 282.131,378.442 283.223,378.442 284.315,378.442 285.407,378.442 286.499,378.442 287.591,378.442 288.683,378.442 289.775,378.442 290.867,378.442 291.959,378.442 293.051,378.442 294.143,378.442 295.235,378.442 296.327,378.442 297.419,378.441 298.511,378.441 299.603,378.441 300.695,378.441 301.787,378.441 302.879,378.441 303.971,378.441 305.063,378.441 306.155,378.441 307.247,378.441 308.339,378.44 309.431,378.44 310.523,378.44 311.615,378.44 312.707,378.44 313.799,378.44 314.891,378.439 315.983,378.439 317.075,378.439 318.167,378.439 319.259,378.438 320.351,378.438 321.443,378.438 322.535,378.438 323.627,378.437 324.719,378.437 325.811,378.437 326.903,378.436 327.995,378.436 329.087,378.435 330.179,378.435 331.271,378.434 332.363,378.434 333.455,378.433 334.547,378.433 335.639,378.432 336.731,378.431 337.823,378.431 338.915,378.43 340.007,378.429 341.099,378.428 342.191,378.427 343.283,378.426 344.375,378.425 345.467,378.424 346.559,378.423 347.651,378.422 348.743,378.421 349.835,378.419 350.927,378.418 352.019,378.416 353.111,378.414 354.203,378.413 355.295,378.411 356.387,378.409 357.479,378.407 358.571,378.405 359.663,378.402 360.755,378.4 361.847,378.397 362.939,378.394 364.031,378.391 365.123,378.388 366.215,378.384 367.307,378.381 368.399,378.377 369.491,378.373 370.583,378.369 371.675,378.364 372.767,378.359 373.859,378.354 374.951,378.348 376.043,378.342 377.135,378.336 378.227,378.33 379.319,378.323 380.411,378.315 381.503,378.307 382.595,378.299 383.687,378.29 384.779,378.28 385.871,378.27 386.963,378.259 388.055,378.248 389.147,378.236 390.239,378.223 391.331,378.209 392.423,378.195 393.515,378.179 394.607,378.163 395.699,378.146 396.791,378.127 397.883,378.107 398.975,378.087 400.067,378.065 401.159,378.041 402.251,378.016 403.343,377.99 404.435,377.961 405.527,377.931 406.619,377.9 407.711,377.866 408.803,377.83 409.895,377.792 410.987,377.751 412.079,377.708 413.172,377.663 414.263,377.614 415.355,377.563 416.448,377.508 417.54,377.45 418.632,377.388 419.724,377.323 420.816,377.253 421.908,377.179 423,377.101 424.092,377.017 425.184,376.929 426.276,376.834 427.368,376.734 428.46,376.628 429.552,376.515 430.644,376.396 431.736,376.268 432.828,376.133 433.92,375.99 435.012,375.837 436.104,375.675 437.196,375.503 438.288,375.32 439.38,375.126 440.472,374.92 441.564,374.701 442.656,374.469 443.748,374.222 444.84,373.959 445.932,373.68 447.024,373.384 448.116,373.07 449.208,372.736 450.3,372.381 451.392,372.004 452.484,371.604 453.576,371.179 454.668,370.727 455.76,370.248 456.852,369.738 457.944,369.197 459.036,368.623 460.128,368.012 461.22,367.364 462.312,366.675 463.404,365.944 464.496,365.167 465.588,364.341 466.68,363.465 467.772,362.534 468.864,361.545 469.956,360.494 471.048,359.379 472.14,358.194 473.232,356.935 474.324,355.598 475.416,354.178 476.508,352.669 477.6,351.067 478.692,349.366 479.784,347.558 480.876,345.638 481.968,343.599 483.06,341.433 484.152,339.132 485.244,336.689 486.336,334.093 487.428,331.336 488.52,328.408 489.612,325.298 490.704,321.994 491.796,318.485 492.888,314.758 493.98,310.799 495.072,306.595 496.164,302.128 497.256,297.384 498.348,292.346 499.44,286.994 500.532,281.309 501.624,275.271 502.716,268.857 503.808,262.045 504.9,254.81 505.992,247.125 507.084,238.961 508.176,230.291 509.268,221.082 510.36,211.3 511.452,200.91 512.544,189.874 513.636,178.152 514.728,165.701 515.82,152.477 516.912,138.43 518.004,123.51 519.096,107.663 520.188,90.8307 521.28,72.9521"/>
<text fill="#000000" x="483.901" y="44.7483" font-size="14" text-anchor="start" baseline-shift="-7" font-family="Helvetica">1.33</text>
<polyline fill="none" stroke="#000000" stroke-width="2" points="460.556,44.7483 481.155,44.7483"/>
<text fill="#000000" x="302.879" y="22.4" font-size="18" text-anchor="middle" baseline-shift="0" font-family="Helvetica">Large Learning Rate</text>
<text fill="#000000" x="302.879" y="413.047" font-size="16" text-anchor="middle" baseline-shift="-16" font-family="Helvetica">Number of iterations</text>
<text fill="#000000" x="18.9578" y="205.421" font-size="16" transform="rotate(-90, 18.9578, 205.421)" text-anchor="middle" baseline-shift="0" font-family="Helvetica">Cost J</text>
</g>
</svg>
