<?xml version="1.0" encoding="UTF-8" standalone="no"?>
<svg xmlns="http://www.w3.org/2000/svg"
     xmlns:xlink="http://www.w3.org/1999/xlink"
     width="576px" height="432px" viewBox="0 0 576 432">
<title>glps_renderer figure</title>
<desc>
Creator: GL2PS 1.3.8, (C) 1999-2012 C. Geuzaine
For: Octave
CreationDate: Sun Jun 18 12:48:36 2017
</desc>
<defs>
</defs>
<g shape-rendering="crispEdges">
<polygon fill="#ffffff" points="84.4781,378.443 521.28,378.443 84.4781,32.4"/>
<polygon fill="#ffffff" points="521.28,378.443 521.28,32.4 84.4781,32.4"/>
<polyline fill="none" stroke="#000000" stroke-width="2" stroke-dasharray="16,0" points="84.4781,378.443 521.28,378.443"/>
<polyline fill="none" stroke="#000000" stroke-width="2" stroke-dasharray="16,0" points="84.4781,378.443 84.4781,32.4"/>
<polyline fill="none" stroke="#000000" stroke-width="2" stroke-dasharray="16,0" points="84.4781,378.443 84.4781,374.074"/>
<polyline fill="none" stroke="#000000" stroke-width="2" stroke-dasharray="16,0" points="193.679,378.443 193.679,374.074"/>
<polyline fill="none" stroke="#000000" stroke-width="2" stroke-dasharray="16,0" points="302.879,378.443 302.879,374.074"/>
<polyline fill="none" stroke="#000000" stroke-width="2" stroke-dasharray="16,0" points="412.079,378.443 412.079,374.074"/>
<polyline fill="none" stroke="#000000" stroke-width="2" stroke-dasharray="16,0" points="521.28,378.443 521.28,374.074"/>
<text fill="#000000" x="84.4781" y="383.443" font-size="10" text-anchor="middle" baseline-shift="-10" font-family="Helvetica">0</text>
<text fill="#000000" x="193.679" y="383.443" font-size="10" text-anchor="middle" baseline-shift="-10" font-family="Helvetica">100</text>
<text fill="#000000" x="302.879" y="383.443" font-size="10" text-anchor="middle" baseline-shift="-10" font-family="Helvetica">200</text>
<text fill="#000000" x="412.079" y="383.443" font-size="10" text-anchor="middle" baseline-shift="-10" font-family="Helvetica">300</text>
<text fill="#000000" x="521.28" y="383.443" font-size="10" text-anchor="middle" baseline-shift="-10" font-family="Helvetica">400</text>
<polyline fill="none" stroke="#000000" stroke-width="2" stroke-dasharray="16,0" points="84.4781,378.443 88.8441,378.443"/>
<polyline fill="none" stroke="#000000" stroke-width="2" stroke-dasharray="16,0" points="84.4781,329.008 88.8441,329.008"/>
<polyline fill="none" stroke="#000000" stroke-width="2" stroke-dasharray="16,0" points="84.4781,279.573 88.8441,279.573"/>
<polyline fill="none" stroke="#000000" stroke-width="2" stroke-dasharray="16,0" points="84.4781,230.139 88.8441,230.139"/>
<polyline fill="none" stroke="#000000" stroke-width="2" stroke-dasharray="16,0" points="84.4781,180.704 88.8441,180.704"/>
<polyline fill="none" stroke="#000000" stroke-width="2" stroke-dasharray="16,0" points="84.4781,131.269 88.8441,131.269"/>
<polyline fill="none" stroke="#000000" stroke-width="2" stroke-dasharray="16,0" points="84.4781,81.8347 88.8441,81.8347"/>
<polyline fill="none" stroke="#000000" stroke-width="2" stroke-dasharray="16,0" points="84.4781,32.4 88.8441,32.4"/>
<text fill="#000000" x="79.4803" y="378.443" font-size="10" text-anchor="end" baseline-shift="-5" font-family="Helvetica">0</text>
<text fill="#000000" x="79.4803" y="329.008" font-size="10" text-anchor="end" baseline-shift="-5" font-family="Helvetica">1e+10</text>
<text fill="#000000" x="79.4803" y="279.573" font-size="10" text-anchor="end" baseline-shift="-5" font-family="Helvetica">2e+10</text>
<text fill="#000000" x="79.4803" y="230.139" font-size="10" text-anchor="end" baseline-shift="-5" font-family="Helvetica">3e+10</text>
<text fill="#000000" x="79.4803" y="180.704" font-size="10" text-anchor="end" baseline-shift="-5" font-family="Helvetica">4e+10</text>
<text fill="#000000" x="79.4803" y="131.269" font-size="10" text-anchor="end" baseline-shift="-5" font-family="Helvetica">5e+10</text>
<text fill="#000000" x="79.4803" y="81.8347" font-size="10" text-anchor="end" baseline-shift="-5" font-family="Helvetica">6e+10</text>
<text fill="#000000" x="79.4803" y="32.4" font-size="10" text-anchor="end" baseline-shift="-5" font-family="Helvetica">7e+10</text>
<polyline fill="none" stroke="#0000ff" stroke-width="2" points="85.5701,60.5741 86.6621,66.8224 87.7541,72.9408 88.8461,78.9322 89.9381,84.7991 91.0301,90.5443 92.1221,96.1703 93.2141,101.68 94.3061,107.075 95.3981,112.359 96.4901,117.533 97.5821,122.6 98.6741,127.562 99.7661,132.422 100.858,137.181 101.95,141.842 103.042,146.407 104.134,150.878 105.226,155.257 106.318,159.545 107.41,163.745 108.502,167.859 109.594,171.888 110.686,175.834 111.778,179.699 112.87,183.485 113.962,187.193 115.054,190.825 116.146,194.382 117.238,197.866 118.33,201.279 119.422,204.622 120.514,207.896 121.606,211.104 122.698,214.246 123.79,217.323 124.882,220.338 125.974,223.291 127.066,226.184 128.158,229.018 129.25,231.794 130.342,234.513 131.434,237.177 132.526,239.787 133.618,242.343 134.71,244.847 135.802,247.301 136.894,249.704 137.986,252.059 139.078,254.366 140.17,256.626 141.262,258.84 142.354,261.009 143.446,263.134 144.538,265.216 145.63,267.256 146.722,269.254 147.814,271.212 148.906,273.131 149.998,275.01 151.09,276.852 152.182,278.656 153.274,280.424 154.366,282.156 155.458,283.853 156.55,285.516 157.642,287.145 158.734,288.741 159.826,290.305 160.918,291.838 162.01,293.34 163.102,294.812 164.194,296.253 165.286,297.666 166.378,299.051 167.47,300.408 168.562,301.737 169.654,303.04 170.746,304.316 171.838,305.567 172.93,306.793 174.022,307.994 175.114,309.171 176.206,310.325 177.298,311.455 178.39,312.563 179.482,313.649 180.574,314.713 181.666,315.756 182.758,316.777 183.85,317.779 184.943,318.76 186.035,319.722 187.127,320.664 188.219,321.588 189.311,322.494 190.403,323.381 191.495,324.251 192.587,325.103 193.679,325.938 194.771,326.757 195.863,327.559 196.955,328.346 198.047,329.117 199.139,329.872 200.231,330.613 201.323,331.338 202.415,332.05 203.507,332.747 204.599,333.43 205.691,334.1 206.783,334.757 207.875,335.401 208.967,336.032 210.059,336.65 211.151,337.256 212.243,337.85 213.335,338.433 214.427,339.004 215.519,339.563 216.611,340.112 217.703,340.65 218.795,341.177 219.887,341.694 220.979,342.2 222.071,342.697 223.163,343.184 224.255,343.661 225.347,344.129 226.439,344.587 227.531,345.037 228.623,345.478 229.715,345.91 230.807,346.334 231.899,346.749 232.991,347.156 234.083,347.556 235.175,347.947 236.267,348.331 237.359,348.707 238.451,349.076 239.543,349.438 240.635,349.792 241.727,350.14 242.819,350.481 243.911,350.815 245.003,351.143 246.095,351.464 247.187,351.779 248.279,352.088 249.371,352.391 250.463,352.688 251.555,352.979 252.647,353.264 253.739,353.544 254.831,353.819 255.923,354.088 257.015,354.352 258.107,354.611 259.199,354.865 260.291,355.114 261.383,355.358 262.475,355.597 263.567,355.832 264.659,356.062 265.751,356.288 266.843,356.51 267.935,356.727 269.027,356.94 270.119,357.148 271.211,357.353 272.303,357.554 273.395,357.751 274.487,357.944 275.579,358.134 276.671,358.32 277.763,358.502 278.855,358.681 279.947,358.856 281.039,359.028 282.131,359.197 283.223,359.362 284.315,359.524 285.407,359.684 286.499,359.84 287.591,359.993 288.683,360.143 289.775,360.29 290.867,360.435 291.959,360.577 293.051,360.716 294.143,360.852 295.235,360.986 296.327,361.117 297.419,361.246 298.511,361.373 299.603,361.497 300.695,361.618 301.787,361.737 302.879,361.854 303.971,361.969 305.063,362.082 306.155,362.192 307.247,362.301 308.339,362.407 309.431,362.512 310.523,362.614 311.615,362.715 312.707,362.813 313.799,362.91 314.891,363.005 315.983,363.098 317.075,363.189 318.167,363.279 319.259,363.367 320.351,363.453 321.443,363.538 322.535,363.621 323.627,363.703 324.719,363.783 325.811,363.861 326.903,363.939 327.995,364.014 329.087,364.089 330.179,364.161 331.271,364.233 332.363,364.303 333.455,364.372 334.547,364.44 335.639,364.506 336.731,364.571 337.823,364.635 338.915,364.698 340.007,364.76 341.099,364.82 342.191,364.879 343.283,364.938 344.375,364.995 345.467,365.051 346.559,365.106 347.651,365.16 348.743,365.213 349.835,365.265 350.927,365.317 352.019,365.367 353.111,365.416 354.203,365.465 355.295,365.512 356.387,365.559 357.479,365.605 358.571,365.65 359.663,365.694 360.755,365.737 361.847,365.78 362.939,365.822 364.031,365.863 365.123,365.903 366.215,365.943 367.307,365.982 368.399,366.02 369.491,366.057 370.583,366.094 371.675,366.13 372.767,366.166 373.859,366.201 374.951,366.235 376.043,366.269 377.135,366.302 378.227,366.334 379.319,366.366 380.411,366.397 381.503,366.428 382.595,366.458 383.687,366.488 384.779,366.517 385.871,366.546 386.963,366.574 388.055,366.602 389.147,366.629 390.239,366.655 391.331,366.682 392.423,366.707 393.515,366.733 394.607,366.758 395.699,366.782 396.791,366.806 397.883,366.83 398.975,366.853 400.067,366.876 401.159,366.898 402.251,366.92 403.343,366.942 404.435,366.963 405.527,366.984 406.619,367.004 407.711,367.024 408.803,367.044 409.895,367.064 410.987,367.083 412.079,367.102 413.172,367.12 414.263,367.138 415.355,367.156 416.448,367.174 417.54,367.191 418.632,367.208 419.724,367.225 420.816,367.241 421.908,367.257 423,367.273 424.092,367.289 425.184,367.304 426.276,367.319 427.368,367.334 428.46,367.348 429.552,367.363 430.644,367.377 431.736,367.391 432.828,367.404 433.92,367.418 435.012,367.431 436.104,367.444 437.196,367.457 438.288,367.469 439.38,367.481 440.472,367.494 441.564,367.505 442.656,367.517 443.748,367.529 444.84,367.54 445.932,367.551 447.024,367.562 448.116,367.573 449.208,367.584 450.3,367.594 451.392,367.604 452.484,367.615 453.576,367.625 454.668,367.634 455.76,367.644 456.852,367.654 457.944,367.663 459.036,367.672 460.128,367.681 461.22,367.69 462.312,367.699 463.404,367.707 464.496,367.716 465.588,367.724 466.68,367.732 467.772,367.741 468.864,367.749 469.956,367.756 471.048,367.764 472.14,367.772 473.232,367.779 474.324,367.787 475.416,367.794 476.508,367.801 477.6,367.808 478.692,367.815 479.784,367.822 480.876,367.828 481.968,367.835 483.06,367.842 484.152,367.848 485.244,367.854 486.336,367.861 487.428,367.867 488.52,367.873 489.612,367.879 490.704,367.885 491.796,367.89 492.888,367.896 493.98,367.902 495.072,367.907 496.164,367.913 497.256,367.918 498.348,367.923 499.44,367.928 500.532,367.933 501.624,367.938 502.716,367.943 503.808,367.948 504.9,367.953 505.992,367.958 507.084,367.963 508.176,367.967 509.268,367.972 510.36,367.976 511.452,367.981 512.544,367.985 513.636,367.989 514.728,367.994 515.82,367.998 516.912,368.002 518.004,368.006 519.096,368.01 520.188,368.014 521.28,368.018"/>
<polyline fill="none" stroke="#00ff00" stroke-width="2" points="85.5701,73.1349 86.6621,90.908 87.7541,107.586 88.8461,123.239 89.9381,137.93 91.0301,151.721 92.1221,164.667 93.2141,176.822 94.3061,188.235 95.3981,198.953 96.4901,209.018 97.5821,218.471 98.6741,227.351 99.7661,235.692 100.858,243.529 101.95,250.892 103.042,257.81 104.134,264.311 105.226,270.421 106.318,276.163 107.41,281.56 108.502,286.634 109.594,291.404 110.686,295.888 111.778,300.104 112.87,304.069 113.962,307.797 115.054,311.303 116.146,314.601 117.238,317.703 118.33,320.621 119.422,323.366 120.514,325.948 121.606,328.378 122.698,330.665 123.79,332.816 124.882,334.841 125.974,336.747 127.066,338.54 128.158,340.229 129.25,341.819 130.342,343.315 131.434,344.724 132.526,346.051 133.618,347.301 134.71,348.477 135.802,349.586 136.894,350.63 137.986,351.613 139.078,352.54 140.17,353.413 141.262,354.235 142.354,355.01 143.446,355.741 144.538,356.429 145.63,357.078 146.722,357.69 147.814,358.267 148.906,358.811 149.998,359.324 151.09,359.808 152.182,360.264 153.274,360.695 154.366,361.101 155.458,361.484 156.55,361.846 157.642,362.187 158.734,362.509 159.826,362.813 160.918,363.1 162.01,363.371 163.102,363.627 164.194,363.869 165.286,364.097 166.378,364.313 167.47,364.517 168.562,364.709 169.654,364.892 170.746,365.064 171.838,365.226 172.93,365.38 174.022,365.526 175.114,365.664 176.206,365.794 177.298,365.917 178.39,366.034 179.482,366.144 180.574,366.249 181.666,366.348 182.758,366.442 183.85,366.531 184.943,366.615 186.035,366.695 187.127,366.77 188.219,366.842 189.311,366.91 190.403,366.975 191.495,367.036 192.587,367.094 193.679,367.149 194.771,367.202 195.863,367.251 196.955,367.299 198.047,367.344 199.139,367.386 200.231,367.427 201.323,367.465 202.415,367.502 203.507,367.537 204.599,367.57 205.691,367.602 206.783,367.632 207.875,367.661 208.967,367.688 210.059,367.714 211.151,367.739 212.243,367.762 213.335,367.785 214.427,367.807 215.519,367.827 216.611,367.847 217.703,367.866 218.795,367.883 219.887,367.901 220.979,367.917 222.071,367.933 223.163,367.948 224.255,367.962 225.347,367.976 226.439,367.989 227.531,368.001 228.623,368.013 229.715,368.025 230.807,368.036 231.899,368.046 232.991,368.057 234.083,368.066 235.175,368.076 236.267,368.085 237.359,368.093 238.451,368.102 239.543,368.109 240.635,368.117 241.727,368.124 242.819,368.132 243.911,368.138 245.003,368.145 246.095,368.151 247.187,368.157 248.279,368.163 249.371,368.169 250.463,368.174 251.555,368.179 252.647,368.184 253.739,368.189 254.831,368.194 255.923,368.198 257.015,368.203 258.107,368.207 259.199,368.211 260.291,368.215 261.383,368.219 262.475,368.222 263.567,368.226 264.659,368.229 265.751,368.233 266.843,368.236 267.935,368.239 269.027,368.242 270.119,368.245 271.211,368.248 272.303,368.25 273.395,368.253 274.487,368.255 275.579,368.258 276.671,368.26 277.763,368.263 278.855,368.265 279.947,368.267 281.039,368.269 282.131,368.271 283.223,368.273 284.315,368.275 285.407,368.277 286.499,368.279 287.591,368.28 288.683,368.282 289.775,368.284 290.867,368.285 291.959,368.287 293.051,368.288 294.143,368.29 295.235,368.291 296.327,368.293 297.419,368.294 298.511,368.295 299.603,368.297 300.695,368.298 301.787,368.299 302.879,368.3 303.971,368.301 305.063,368.302 306.155,368.303 307.247,368.304 308.339,368.305 309.431,368.306 310.523,368.307 311.615,368.308 312.707,368.309 313.799,368.31 314.891,368.311 315.983,368.312 317.075,368.312 318.167,368.313 319.259,368.314 320.351,368.315 321.443,368.315 322.535,368.316 323.627,368.317 324.719,368.318 325.811,368.318 326.903,368.319 327.995,368.319 329.087,368.32 330.179,368.321 331.271,368.321 332.363,368.322 333.455,368.322 334.547,368.323 335.639,368.323 336.731,368.324 337.823,368.324 338.915,368.325 340.007,368.325 341.099,368.326 342.191,368.326 343.283,368.326 344.375,368.327 345.467,368.327 346.559,368.328 347.651,368.328 348.743,368.328 349.835,368.329 350.927,368.329 352.019,368.329 353.111,368.33 354.203,368.33 355.295,368.33 356.387,368.331 357.479,368.331 358.571,368.331 359.663,368.331 360.755,368.332 361.847,368.332 362.939,368.332 364.031,368.332 365.123,368.333 366.215,368.333 367.307,368.333 368.399,368.333 369.491,368.334 370.583,368.334 371.675,368.334 372.767,368.334 373.859,368.334 374.951,368.335 376.043,368.335 377.135,368.335 378.227,368.335 379.319,368.335 380.411,368.336 381.503,368.336 382.595,368.336 383.687,368.336 384.779,368.336 385.871,368.336 386.963,368.336 388.055,368.337 389.147,368.337 390.239,368.337 391.331,368.337 392.423,368.337 393.515,368.337 394.607,368.337 395.699,368.337 396.791,368.338 397.883,368.338 398.975,368.338 400.067,368.338 401.159,368.338 402.251,368.338 403.343,368.338 404.435,368.338 405.527,368.338 406.619,368.339 407.711,368.339 408.803,368.339 409.895,368.339 410.987,368.339 412.079,368.339 413.172,368.339 414.263,368.339 415.355,368.339 416.448,368.339 417.54,368.339 418.632,368.339 419.724,368.339 420.816,368.339 421.908,368.34 423,368.34 424.092,368.34 425.184,368.34 426.276,368.34 427.368,368.34 428.46,368.34 429.552,368.34 430.644,368.34 431.736,368.34 432.828,368.34 433.92,368.34 435.012,368.34 436.104,368.34 437.196,368.34 438.288,368.34 439.38,368.34 440.472,368.34 441.564,368.34 442.656,368.34 443.748,368.34 444.84,368.341 445.932,368.341 447.024,368.341 448.116,368.341 449.208,368.341 450.3,368.341 451.392,368.341 452.484,368.341 453.576,368.341 454.668,368.341 455.76,368.341 456.852,368.341 457.944,368.341 459.036,368.341 460.128,368.341 461.22,368.341 462.312,368.341 463.404,368.341 464.496,368.341 465.588,368.341 466.68,368.341 467.772,368.341 468.864,368.341 469.956,368.341 471.048,368.341 472.14,368.341 473.232,368.341 474.324,368.341 475.416,368.341 476.508,368.341 477.6,368.341 478.692,368.341 479.784,368.341 480.876,368.341 481.968,368.341 483.06,368.341 484.152,368.341 485.244,368.341 486.336,368.341 487.428,368.341 488.52,368.341 489.612,368.341 490.704,368.341 491.796,368.341 492.888,368.341 493.98,368.341 495.072,368.341 496.164,368.341 497.256,368.341 498.348,368.341 499.44,368.342 500.532,368.342 501.624,368.342 502.716,368.342 503.808,368.342 504.9,368.342 505.992,368.342 507.084,368.342 508.176,368.342 509.268,368.342 510.36,368.342 511.452,368.342 512.544,368.342 513.636,368.342 514.728,368.342 515.82,368.342 516.912,368.342 518.004,368.342 519.096,368.342 520.188,368.342 521.28,368.342"/>
<polyline fill="none" stroke="#ff0000" stroke-width="2" points="85.5701,114.985 86.6621,163.762 87.7541,202.951 88.8461,234.476 89.9381,259.865 91.0301,280.336 92.1221,296.858 93.2141,310.207 94.3061,321.002 95.3981,329.741 96.4901,336.823 97.5821,342.567 98.6741,347.23 99.7661,351.02 100.858,354.104 101.95,356.616 103.042,358.664 104.134,360.336 105.226,361.703 106.318,362.823 107.41,363.741 108.502,364.495 109.594,365.116 110.686,365.627 111.778,366.05 112.87,366.4 113.962,366.691 115.054,366.933 116.146,367.135 117.238,367.304 118.33,367.446 119.422,367.566 120.514,367.667 121.606,367.753 122.698,367.826 123.79,367.889 124.882,367.942 125.974,367.988 127.066,368.028 128.158,368.063 129.25,368.093 130.342,368.119 131.434,368.143 132.526,368.163 133.618,368.181 134.71,368.197 135.802,368.211 136.894,368.223 137.986,368.235 139.078,368.245 140.17,368.254 141.262,368.262 142.354,368.269 143.446,368.276 144.538,368.281 145.63,368.287 146.722,368.292 147.814,368.296 148.906,368.3 149.998,368.304 151.09,368.307 152.182,368.31 153.274,368.313 154.366,368.315 155.458,368.318 156.55,368.32 157.642,368.322 158.734,368.323 159.826,368.325 160.918,368.326 162.01,368.328 163.102,368.329 164.194,368.33 165.286,368.331 166.378,368.332 167.47,368.333 168.562,368.334 169.654,368.334 170.746,368.335 171.838,368.335 172.93,368.336 174.022,368.337 175.114,368.337 176.206,368.337 177.298,368.338 178.39,368.338 179.482,368.338 180.574,368.339 181.666,368.339 182.758,368.339 183.85,368.339 184.943,368.34 186.035,368.34 187.127,368.34 188.219,368.34 189.311,368.34 190.403,368.34 191.495,368.341 192.587,368.341 193.679,368.341 194.771,368.341 195.863,368.341 196.955,368.341 198.047,368.341 199.139,368.341 200.231,368.341 201.323,368.341 202.415,368.341 203.507,368.341 204.599,368.341 205.691,368.341 206.783,368.341 207.875,368.342 208.967,368.342 210.059,368.342 211.151,368.342 212.243,368.342 213.335,368.342 214.427,368.342 215.519,368.342 216.611,368.342 217.703,368.342 218.795,368.342 219.887,368.342 220.979,368.342 222.071,368.342 223.163,368.342 224.255,368.342 225.347,368.342 226.439,368.342 227.531,368.342 228.623,368.342 229.715,368.342 230.807,368.342 231.899,368.342 232.991,368.342 234.083,368.342 235.175,368.342 236.267,368.342 237.359,368.342 238.451,368.342 239.543,368.342 240.635,368.342 241.727,368.342 242.819,368.342 243.911,368.342 245.003,368.342 246.095,368.342 247.187,368.342 248.279,368.342 249.371,368.342 250.463,368.342 251.555,368.342 252.647,368.342 253.739,368.342 254.831,368.342 255.923,368.342 257.015,368.342 258.107,368.342 259.199,368.342 260.291,368.342 261.383,368.342 262.475,368.342 263.567,368.342 264.659,368.342 265.751,368.342 266.843,368.342 267.935,368.342 269.027,368.342 270.119,368.342 271.211,368.342 272.303,368.342 273.395,368.342 274.487,368.342 275.579,368.342 276.671,368.342 277.763,368.342 278.855,368.342 279.947,368.342 281.039,368.342 282.131,368.342 283.223,368.342 284.315,368.342 285.407,368.342 286.499,368.342 287.591,368.342 288.683,368.342 289.775,368.342 290.867,368.342 291.959,368.342 293.051,368.342 294.143,368.342 295.235,368.342 296.327,368.342 297.419,368.342 298.511,368.342 299.603,368.342 300.695,368.342 301.787,368.342 302.879,368.342 303.971,368.342 305.063,368.342 306.155,368.342 307.247,368.342 308.339,368.342 309.431,368.342 310.523,368.342 311.615,368.342 312.707,368.342 313.799,368.342 314.891,368.342 315.983,368.342 317.075,368.342 318.167,368.342 319.259,368.342 320.351,368.342 321.443,368.342 322.535,368.342 323.627,368.342 324.719,368.342 325.811,368.342 326.903,368.342 327.995,368.342 329.087,368.342 330.179,368.342 331.271,368.342 332.363,368.342 333.455,368.342 334.547,368.342 335.639,368.342 336.731,368.342 337.823,368.342 338.915,368.342 340.007,368.342 341.099,368.342 342.191,368.342 343.283,368.342 344.375,368.342 345.467,368.342 346.559,368.342 347.651,368.342 348.743,368.342 349.835,368.342 350.927,368.342 352.019,368.342 353.111,368.342 354.203,368.342 355.295,368.342 356.387,368.342 357.479,368.342 358.571,368.342 359.663,368.342 360.755,368.342 361.847,368.342 362.939,368.342 364.031,368.342 365.123,368.342 366.215,368.342 367.307,368.342 368.399,368.342 369.491,368.342 370.583,368.342 371.675,368.342 372.767,368.342 373.859,368.342 374.951,368.342 376.043,368.342 377.135,368.342 378.227,368.342 379.319,368.342 380.411,368.342 381.503,368.342 382.595,368.342 383.687,368.342 384.779,368.342 385.871,368.342 386.963,368.342 388.055,368.342 389.147,368.342 390.239,368.342 391.331,368.342 392.423,368.342 393.515,368.342 394.607,368.342 395.699,368.342 396.791,368.342 397.883,368.342 398.975,368.342 400.067,368.342 401.159,368.342 402.251,368.342 403.343,368.342 404.435,368.342 405.527,368.342 406.619,368.342 407.711,368.342 408.803,368.342 409.895,368.342 410.987,368.342 412.079,368.342 413.172,368.342 414.263,368.342 415.355,368.342 416.448,368.342 417.54,368.342 418.632,368.342 419.724,368.342 420.816,368.342 421.908,368.342 423,368.342 424.092,368.342 425.184,368.342 426.276,368.342 427.368,368.342 428.46,368.342 429.552,368.342 430.644,368.342 431.736,368.342 432.828,368.342 433.92,368.342 435.012,368.342 436.104,368.342 437.196,368.342 438.288,368.342 439.38,368.342 440.472,368.342 441.564,368.342 442.656,368.342 443.748,368.342 444.84,368.342 445.932,368.342 447.024,368.342 448.116,368.342 449.208,368.342 450.3,368.342 451.392,368.342 452.484,368.342 453.576,368.342 454.668,368.342 455.76,368.342 456.852,368.342 457.944,368.342 459.036,368.342 460.128,368.342 461.22,368.342 462.312,368.342 463.404,368.342 464.496,368.342 465.588,368.342 466.68,368.342 467.772,368.342 468.864,368.342 469.956,368.342 471.048,368.342 472.14,368.342 473.232,368.342 474.324,368.342 475.416,368.342 476.508,368.342 477.6,368.342 478.692,368.342 479.784,368.342 480.876,368.342 481.968,368.342 483.06,368.342 484.152,368.342 485.244,368.342 486.336,368.342 487.428,368.342 488.52,368.342 489.612,368.342 490.704,368.342 491.796,368.342 492.888,368.342 493.98,368.342 495.072,368.342 496.164,368.342 497.256,368.342 498.348,368.342 499.44,368.342 500.532,368.342 501.624,368.342 502.716,368.342 503.808,368.342 504.9,368.342 505.992,368.342 507.084,368.342 508.176,368.342 509.268,368.342 510.36,368.342 511.452,368.342 512.544,368.342 513.636,368.342 514.728,368.342 515.82,368.342 516.912,368.342 518.004,368.342 519.096,368.342 520.188,368.342 521.28,368.342"/>
<polyline fill="none" stroke="#ffc105" stroke-width="2" points="85.5701,216.449 86.6621,293.601 87.7541,330.935 88.8461,349.258 89.9381,358.371 91.0301,362.972 92.1221,365.34 93.2141,366.589 94.3061,367.268 95.3981,367.653 96.4901,367.881 97.5821,368.022 98.6741,368.114 99.7661,368.177 100.858,368.22 101.95,368.251 103.042,368.274 104.134,368.291 105.226,368.303 106.318,368.313 107.41,368.32 108.502,368.325 109.594,368.329 110.686,368.332 111.778,368.335 112.87,368.336 113.962,368.338 115.054,368.339 116.146,368.339 117.238,368.34 118.33,368.341 119.422,368.341 120.514,368.341 121.606,368.341 122.698,368.341 123.79,368.342 124.882,368.342 125.974,368.342 127.066,368.342 128.158,368.342 129.25,368.342 130.342,368.342 131.434,368.342 132.526,368.342 133.618,368.342 134.71,368.342 135.802,368.342 136.894,368.342 137.986,368.342 139.078,368.342 140.17,368.342 141.262,368.342 142.354,368.342 143.446,368.342 144.538,368.342 145.63,368.342 146.722,368.342 147.814,368.342 148.906,368.342 149.998,368.342 151.09,368.342 152.182,368.342 153.274,368.342 154.366,368.342 155.458,368.342 156.55,368.342 157.642,368.342 158.734,368.342 159.826,368.342 160.918,368.342 162.01,368.342 163.102,368.342 164.194,368.342 165.286,368.342 166.378,368.342 167.47,368.342 168.562,368.342 169.654,368.342 170.746,368.342 171.838,368.342 172.93,368.342 174.022,368.342 175.114,368.342 176.206,368.342 177.298,368.342 178.39,368.342 179.482,368.342 180.574,368.342 181.666,368.342 182.758,368.342 183.85,368.342 184.943,368.342 186.035,368.342 187.127,368.342 188.219,368.342 189.311,368.342 190.403,368.342 191.495,368.342 192.587,368.342 193.679,368.342 194.771,368.342 195.863,368.342 196.955,368.342 198.047,368.342 199.139,368.342 200.231,368.342 201.323,368.342 202.415,368.342 203.507,368.342 204.599,368.342 205.691,368.342 206.783,368.342 207.875,368.342 208.967,368.342 210.059,368.342 211.151,368.342 212.243,368.342 213.335,368.342 214.427,368.342 215.519,368.342 216.611,368.342 217.703,368.342 218.795,368.342 219.887,368.342 220.979,368.342 222.071,368.342 223.163,368.342 224.255,368.342 225.347,368.342 226.439,368.342 227.531,368.342 228.623,368.342 229.715,368.342 230.807,368.342 231.899,368.342 232.991,368.342 234.083,368.342 235.175,368.342 236.267,368.342 237.359,368.342 238.451,368.342 239.543,368.342 240.635,368.342 241.727,368.342 242.819,368.342 243.911,368.342 245.003,368.342 246.095,368.342 247.187,368.342 248.279,368.342 249.371,368.342 250.463,368.342 251.555,368.342 252.647,368.342 253.739,368.342 254.831,368.342 255.923,368.342 257.015,368.342 258.107,368.342 259.199,368.342 260.291,368.342 261.383,368.342 262.475,368.342 263.567,368.342 264.659,368.342 265.751,368.342 266.843,368.342 267.935,368.342 269.027,368.342 270.119,368.342 271.211,368.342 272.303,368.342 273.395,368.342 274.487,368.342 275.579,368.342 276.671,368.342 277.763,368.342 278.855,368.342 279.947,368.342 281.039,368.342 282.131,368.342 283.223,368.342 284.315,368.342 285.407,368.342 286.499,368.342 287.591,368.342 288.683,368.342 289.775,368.342 290.867,368.342 291.959,368.342 293.051,368.342 294.143,368.342 295.235,368.342 296.327,368.342 297.419,368.342 298.511,368.342 299.603,368.342 300.695,368.342 301.787,368.342 302.879,368.342 303.971,368.342 305.063,368.342 306.155,368.342 307.247,368.342 308.339,368.342 309.431,368.342 310.523,368.342 311.615,368.342 312.707,368.342 313.799,368.342 314.891,368.342 315.983,368.342 317.075,368.342 318.167,368.342 319.259,368.342 320.351,368.342 321.443,368.342 322.535,368.342 323.627,368.342 324.719,368.342 325.811,368.342 326.903,368.342 327.995,368.342 329.087,368.342 330.179,368.342 331.271,368.342 332.363,368.342 333.455,368.342 334.547,368.342 335.639,368.342 336.731,368.342 337.823,368.342 338.915,368.342 340.007,368.342 341.099,368.342 342.191,368.342 343.283,368.342 344.375,368.342 345.467,368.342 346.559,368.342 347.651,368.342 348.743,368.342 349.835,368.342 350.927,368.342 352.019,368.342 353.111,368.342 354.203,368.342 355.295,368.342 356.387,368.342 357.479,368.342 358.571,368.342 359.663,368.342 360.755,368.342 361.847,368.342 362.939,368.342 364.031,368.342 365.123,368.342 366.215,368.342 367.307,368.342 368.399,368.342 369.491,368.342 370.583,368.342 371.675,368.342 372.767,368.342 373.859,368.342 374.951,368.342 376.043,368.342 377.135,368.342 378.227,368.342 379.319,368.342 380.411,368.342 381.503,368.342 382.595,368.342 383.687,368.342 384.779,368.342 385.871,368.342 386.963,368.342 388.055,368.342 389.147,368.342 390.239,368.342 391.331,368.342 392.423,368.342 393.515,368.342 394.607,368.342 395.699,368.342 396.791,368.342 397.883,368.342 398.975,368.342 400.067,368.342 401.159,368.342 402.251,368.342 403.343,368.342 404.435,368.342 405.527,368.342 406.619,368.342 407.711,368.342 408.803,368.342 409.895,368.342 410.987,368.342 412.079,368.342 413.172,368.342 414.263,368.342 415.355,368.342 416.448,368.342 417.54,368.342 418.632,368.342 419.724,368.342 420.816,368.342 421.908,368.342 423,368.342 424.092,368.342 425.184,368.342 426.276,368.342 427.368,368.342 428.46,368.342 429.552,368.342 430.644,368.342 431.736,368.342 432.828,368.342 433.92,368.342 435.012,368.342 436.104,368.342 437.196,368.342 438.288,368.342 439.38,368.342 440.472,368.342 441.564,368.342 442.656,368.342 443.748,368.342 444.84,368.342 445.932,368.342 447.024,368.342 448.116,368.342 449.208,368.342 450.3,368.342 451.392,368.342 452.484,368.342 453.576,368.342 454.668,368.342 455.76,368.342 456.852,368.342 457.944,368.342 459.036,368.342 460.128,368.342 461.22,368.342 462.312,368.342 463.404,368.342 464.496,368.342 465.588,368.342 466.68,368.342 467.772,368.342 468.864,368.342 469.956,368.342 471.048,368.342 472.14,368.342 473.232,368.342 474.324,368.342 475.416,368.342 476.508,368.342 477.6,368.342 478.692,368.342 479.784,368.342 480.876,368.342 481.968,368.342 483.06,368.342 484.152,368.342 485.244,368.342 486.336,368.342 487.428,368.342 488.52,368.342 489.612,368.342 490.704,368.342 491.796,368.342 492.888,368.342 493.98,368.342 495.072,368.342 496.164,368.342 497.256,368.342 498.348,368.342 499.44,368.342 500.532,368.342 501.624,368.342 502.716,368.342 503.808,368.342 504.9,368.342 505.992,368.342 507.084,368.342 508.176,368.342 509.268,368.342 510.36,368.342 511.452,368.342 512.544,368.342 513.636,368.342 514.728,368.342 515.82,368.342 516.912,368.342 518.004,368.342 519.096,368.342 520.188,368.342 521.28,368.342"/>
<polyline fill="none" stroke="#ff00ff" stroke-width="2" points="85.5701,360.308 86.6621,366.002 87.7541,367.657 88.8461,368.14 89.9381,368.282 91.0301,368.324 92.1221,368.337 93.2141,368.34 94.3061,368.341 95.3981,368.342 96.4901,368.342 97.5821,368.342 98.6741,368.342 99.7661,368.342 100.858,368.342 101.95,368.342 103.042,368.342 104.134,368.342 105.226,368.342 106.318,368.342 107.41,368.342 108.502,368.342 109.594,368.342 110.686,368.342 111.778,368.342 112.87,368.342 113.962,368.342 115.054,368.342 116.146,368.342 117.238,368.342 118.33,368.342 119.422,368.342 120.514,368.342 121.606,368.342 122.698,368.342 123.79,368.342 124.882,368.342 125.974,368.342 127.066,368.342 128.158,368.342 129.25,368.342 130.342,368.342 131.434,368.342 132.526,368.342 133.618,368.342 134.71,368.342 135.802,368.342 136.894,368.342 137.986,368.342 139.078,368.342 140.17,368.342 141.262,368.342 142.354,368.342 143.446,368.342 144.538,368.342 145.63,368.342 146.722,368.342 147.814,368.342 148.906,368.342 149.998,368.342 151.09,368.342 152.182,368.342 153.274,368.342 154.366,368.342 155.458,368.342 156.55,368.342 157.642,368.342 158.734,368.342 159.826,368.342 160.918,368.342 162.01,368.342 163.102,368.342 164.194,368.342 165.286,368.342 166.378,368.342 167.47,368.342 168.562,368.342 169.654,368.342 170.746,368.342 171.838,368.342 172.93,368.342 174.022,368.342 175.114,368.342 176.206,368.342 177.298,368.342 178.39,368.342 179.482,368.342 180.574,368.342 181.666,368.342 182.758,368.342 183.85,368.342 184.943,368.342 186.035,368.342 187.127,368.342 188.219,368.342 189.311,368.342 190.403,368.342 191.495,368.342 192.587,368.342 193.679,368.342 194.771,368.342 195.863,368.342 196.955,368.342 198.047,368.342 199.139,368.342 200.231,368.342 201.323,368.342 202.415,368.342 203.507,368.342 204.599,368.342 205.691,368.342 206.783,368.342 207.875,368.342 208.967,368.342 210.059,368.342 211.151,368.342 212.243,368.342 213.335,368.342 214.427,368.342 215.519,368.342 216.611,368.342 217.703,368.342 218.795,368.342 219.887,368.342 220.979,368.342 222.071,368.342 223.163,368.342 224.255,368.342 225.347,368.342 226.439,368.342 227.531,368.342 228.623,368.342 229.715,368.342 230.807,368.342 231.899,368.342 232.991,368.342 234.083,368.342 235.175,368.342 236.267,368.342 237.359,368.342 238.451,368.342 239.543,368.342 240.635,368.342 241.727,368.342 242.819,368.342 243.911,368.342 245.003,368.342 246.095,368.342 247.187,368.342 248.279,368.342 249.371,368.342 250.463,368.342 251.555,368.342 252.647,368.342 253.739,368.342 254.831,368.342 255.923,368.342 257.015,368.342 258.107,368.342 259.199,368.342 260.291,368.342 261.383,368.342 262.475,368.342 263.567,368.342 264.659,368.342 265.751,368.342 266.843,368.342 267.935,368.342 269.027,368.342 270.119,368.342 271.211,368.342 272.303,368.342 273.395,368.342 274.487,368.342 275.579,368.342 276.671,368.342 277.763,368.342 278.855,368.342 279.947,368.342 281.039,368.342 282.131,368.342 283.223,368.342 284.315,368.342 285.407,368.342 286.499,368.342 287.591,368.342 288.683,368.342 289.775,368.342 290.867,368.342 291.959,368.342 293.051,368.342 294.143,368.342 295.235,368.342 296.327,368.342 297.419,368.342 298.511,368.342 299.603,368.342 300.695,368.342 301.787,368.342 302.879,368.342 303.971,368.342 305.063,368.342 306.155,368.342 307.247,368.342 308.339,368.342 309.431,368.342 310.523,368.342 311.615,368.342 312.707,368.342 313.799,368.342 314.891,368.342 315.983,368.342 317.075,368.342 318.167,368.342 319.259,368.342 320.351,368.342 321.443,368.342 322.535,368.342 323.627,368.342 324.719,368.342 325.811,368.342 326.903,368.342 327.995,368.342 329.087,368.342 330.179,368.342 331.271,368.342 332.363,368.342 333.455,368.342 334.547,368.342 335.639,368.342 336.731,368.342 337.823,368.342 338.915,368.342 340.007,368.342 341.099,368.342 342.191,368.342 343.283,368.342 344.375,368.342 345.467,368.342 346.559,368.342 347.651,368.342 348.743,368.342 349.835,368.342 350.927,368.342 352.019,368.342 353.111,368.342 354.203,368.342 355.295,368.342 356.387,368.342 357.479,368.342 358.571,368.342 359.663,368.342 360.755,368.342 361.847,368.342 362.939,368.342 364.031,368.342 365.123,368.342 366.215,368.342 367.307,368.342 368.399,368.342 369.491,368.342 370.583,368.342 371.675,368.342 372.767,368.342 373.859,368.342 374.951,368.342 376.043,368.342 377.135,368.342 378.227,368.342 379.319,368.342 380.411,368.342 381.503,368.342 382.595,368.342 383.687,368.342 384.779,368.342 385.871,368.342 386.963,368.342 388.055,368.342 389.147,368.342 390.239,368.342 391.331,368.342 392.423,368.342 393.515,368.342 394.607,368.342 395.699,368.342 396.791,368.342 397.883,368.342 398.975,368.342 400.067,368.342 401.159,368.342 402.251,368.342 403.343,368.342 404.435,368.342 405.527,368.342 406.619,368.342 407.711,368.342 408.803,368.342 409.895,368.342 410.987,368.342 412.079,368.342 413.172,368.342 414.263,368.342 415.355,368.342 416.448,368.342 417.54,368.342 418.632,368.342 419.724,368.342 420.816,368.342 421.908,368.342 423,368.342 424.092,368.342 425.184,368.342 426.276,368.342 427.368,368.342 428.46,368.342 429.552,368.342 430.644,368.342 431.736,368.342 432.828,368.342 433.92,368.342 435.012,368.342 436.104,368.342 437.196,368.342 438.288,368.342 439.38,368.342 440.472,368.342 441.564,368.342 442.656,368.342 443.748,368.342 444.84,368.342 445.932,368.342 447.024,368.342 448.116,368.342 449.208,368.342 450.3,368.342 451.392,368.342 452.484,368.342 453.576,368.342 454.668,368.342 455.76,368.342 456.852,368.342 457.944,368.342 459.036,368.342 460.128,368.342 461.22,368.342 462.312,368.342 463.404,368.342 464.496,368.342 465.588,368.342 466.68,368.342 467.772,368.342 468.864,368.342 469.956,368.342 471.048,368.342 472.14,368.342 473.232,368.342 474.324,368.342 475.416,368.342 476.508,368.342 477.6,368.342 478.692,368.342 479.784,368.342 480.876,368.342 481.968,368.342 483.06,368.342 484.152,368.342 485.244,368.342 486.336,368.342 487.428,368.342 488.52,368.342 489.612,368.342 490.704,368.342 491.796,368.342 492.888,368.342 493.98,368.342 495.072,368.342 496.164,368.342 497.256,368.342 498.348,368.342 499.44,368.342 500.532,368.342 501.624,368.342 502.716,368.342 503.808,368.342 504.9,368.342 505.992,368.342 507.084,368.342 508.176,368.342 509.268,368.342 510.36,368.342 511.452,368.342 512.544,368.342 513.636,368.342 514.728,368.342 515.82,368.342 516.912,368.342 518.004,368.342 519.096,368.342 520.188,368.342 521.28,368.342"/>
<text fill="#000000" x="483.901" y="44.7483" font-size="14" text-anchor="start" baseline-shift="-7" font-family="Helvetica">0.01</text>
<text fill="#000000" x="483.901" y="63.9519" font-size="14" text-anchor="start" baseline-shift="-7" font-family="Helvetica">0.03</text>
<text fill="#000000" x="483.901" y="83.1555" font-size="14" text-anchor="start" baseline-shift="-7" font-family="Helvetica">0.1</text>
<text fill="#000000" x="483.901" y="102.359" font-size="14" text-anchor="start" baseline-shift="-7" font-family="Helvetica">0.3</text>
<text fill="#000000" x="483.901" y="121.563" font-size="14" text-anchor="start" baseline-shift="-7" font-family="Helvetica">1</text>
<polyline fill="none" stroke="#0000ff" stroke-width="2" points="460.556,44.7483 481.155,44.7483"/>
<polyline fill="none" stroke="#00ff00" stroke-width="2" points="460.556,63.9519 481.155,63.9519"/>
<polyline fill="none" stroke="#ff0000" stroke-width="2" points="460.556,83.1555 481.155,83.1555"/>
<polyline fill="none" stroke="#ffc105" stroke-width="2" points="460.556,102.359 481.155,102.359"/>
<polyline fill="none" stroke="#ff00ff" stroke-width="2" points="460.556,121.563 481.155,121.563"/>
<text fill="#000000" x="302.879" y="22.4" font-size="18" text-anchor="middle" baseline-shift="0" font-family="Helvetica">Different Learning Rates</text>
<text fill="#000000" x="302.879" y="413.047" font-size="16" text-anchor="middle" baseline-shift="-16" font-family="Helvetica">Number of iterations</text>
<text fill="#000000" x="18.9578" y="205.421" font-size="16" transform="rotate(-90, 18.9578, 205.421)" text-anchor="middle" baseline-shift="0" font-family="Helvetica">Cost J</text>
</g>
</svg>
