<?xml version="1.0" encoding="utf-8"?>
<!-- Generator: Adobe Illustrator 17.0.0, SVG Export Plug-In . SVG Version: 6.00 Build 0)  -->
<!DOCTYPE svg PUBLIC "-//W3C//DTD SVG 1.1//EN" "http://www.w3.org/Graphics/SVG/1.1/DTD/svg11.dtd">
<svg version="1.1" id="Layer_1" xmlns="http://www.w3.org/2000/svg" xmlns:xlink="http://www.w3.org/1999/xlink" x="0px" y="0px"
	 width="350.892px" height="350.892px" viewBox="0 0 350.892 350.892" enable-background="new 0 0 350.892 350.892"
	 xml:space="preserve">
<g>
	<circle fill="#231F20" cx="174.696" cy="175.446" r="17.05"/>
	<path fill="#231F20" d="M175.446,0C78.55,0,0,78.55,0,175.446s78.55,175.446,175.446,175.446s175.446-78.55,175.446-175.446
		S272.342,0,175.446,0z M95.302,305.296c-23.312-17.19-26.603-20.797-42.098-40.954l49.97-38.354
		c10.217,13.221,11.211,14.478,26.148,24.104L95.302,305.296z M174.696,244.993c-38.41,0-69.547-31.137-69.547-69.547
		s31.137-69.547,69.547-69.547s69.547,31.137,69.547,69.547S213.106,244.993,174.696,244.993z M246.107,124.997
		c-12.355-15.687-11.355-14.687-26.458-25.768l34.809-53.095c21.545,14.855,28.073,20.421,42.196,38.052L246.107,124.997z"/>
</g>
</svg>
